<svg id="ZDX_Logo_Black_Red" xmlns="http://www.w3.org/2000/svg" width="172" height="33.207" viewBox="0 0 172 33.207">
  <g id="Group_1" data-name="Group 1" transform="translate(43.608 0.021)">
    <path id="Path_1" data-name="Path 1" d="M333.7,117.828l2.864-6.228h35.554l-2.864,6.228-18.735,9.043-.258.555h14.558l-2.843,6.228H326.4l2.735-5.929,19.209-9.341.258-.555Z" transform="translate(-326.4 -111.6)"/>
    <path id="Path_2" data-name="Path 2" d="M526.762,133.731H507.1L517.265,111.7h18.994c7.731,0,12.921.853,15.527,2.559s3.058,4.436,1.314,8.211a17.049,17.049,0,0,1-8.808,8.446C540.178,132.793,534.32,133.731,526.762,133.731Zm10.466-10.877c.9-1.983,1.1-3.284.581-3.946s-2.218-.981-5.082-.981H529.97l-4.436,9.6h2.757a14.72,14.72,0,0,0,5.556-.853A7.135,7.135,0,0,0,537.228,122.854Z" transform="translate(-468.186 -111.679)"/>
    <path id="Path_3" data-name="Path 3" d="M713.593,111.7l1.292,6.057,8.032-6.057h15.29L723.65,122.193l3.79,11.538H711.461l-1.249-5.865-6.784,5.865H687.6l14.472-10.557L697.764,111.7Z" transform="translate(-609.816 -111.679)"/>
  </g>
  <g id="Group_2" data-name="Group 2" transform="translate(39 25.913)">
    <path id="Path_4" data-name="Path 4" d="M310.1,239.224h-.517l-.689,1.493H305l3.252-7.017h4.436a7.849,7.849,0,0,1,3.639.576c.646.384.711,1.109.215,2.154a4.088,4.088,0,0,1-2.24,2.2A12.244,12.244,0,0,1,310.1,239.224Zm.366-1.919h.345a2.637,2.637,0,0,0,1.12-.192,1.4,1.4,0,0,0,.625-.682q.226-.48,0-.64a1.876,1.876,0,0,0-.969-.171h-.345Z" transform="translate(-305 -233.551)"/>
    <path id="Path_5" data-name="Path 5" d="M354.8,240.717l3.252-7.017h8.463l-.9,1.941h-4.544l-.28.6h3.532l-.883,1.919H359.9l-.28.618h4.544l-.9,1.941Z" transform="translate(-344.076 -233.551)"/>
    <path id="Path_6" data-name="Path 6" d="M405.428,238.9h-.969l-.84,1.813H399.7l3.252-7.017h4.759a7.464,7.464,0,0,1,3.489.533c.581.363.646,1.024.194,2a4.009,4.009,0,0,1-2.218,2.09v2.389h-3.984Zm.861-1.92a1.154,1.154,0,0,0,1.141-.682c.215-.448,0-.682-.6-.682h-.861l-.625,1.365Z" transform="translate(-379.306 -233.551)"/>
    <path id="Path_7" data-name="Path 7" d="M450,240.717l3.252-7.017h8.14l-.926,1.983h-4.221l-.517,1.13h3.209l-.926,1.983H454.8l-.883,1.919Z" transform="translate(-418.774 -233.551)"/>
    <path id="Path_8" data-name="Path 8" d="M507.627,236.647a5.6,5.6,0,0,1-2.563,2.773,9.836,9.836,0,0,1-4.479.853c-1.874,0-3.1-.3-3.7-.874-.581-.576-.6-1.514,0-2.773a5.6,5.6,0,0,1,2.563-2.773,9.935,9.935,0,0,1,4.5-.853c1.874,0,3.1.277,3.7.853C508.209,234.45,508.209,235.367,507.627,236.647Zm-6.805,0a2.241,2.241,0,0,0-.323,1.28c.065.256.388.384.991.384a1.99,1.99,0,0,0,1.335-.384,3.691,3.691,0,0,0,.861-1.3,2.573,2.573,0,0,0,.345-1.28q-.1-.384-.969-.384a2.094,2.094,0,0,0-1.357.384A3.538,3.538,0,0,0,500.822,236.647Z" transform="translate(-455.211 -233)"/>
    <path id="Path_9" data-name="Path 9" d="M552.028,238.9h-.969l-.84,1.813H546.3l3.252-7.017h4.759a7.464,7.464,0,0,1,3.489.533c.581.363.646,1.024.194,2a4.009,4.009,0,0,1-2.218,2.09v2.389h-3.941Zm.883-1.92a1.154,1.154,0,0,0,1.141-.682c.215-.448,0-.682-.6-.682h-.861l-.625,1.365Z" transform="translate(-494.336 -233.551)"/>
    <path id="Path_10" data-name="Path 10" d="M596.7,240.717l3.252-7.017h5.814l-.366,2.687,1.96-2.687h5.987l-3.252,7.017h-3.919l1.68-3.6h-.194l-2.606,3.54h-3.273l.668-3.54h-.194l-1.68,3.6Z" transform="translate(-533.882 -233.551)"/>
    <path id="Path_11" data-name="Path 11" d="M662.8,240.717l5.75-7.017h5.922l-.711,7.017H669.82l.043-.81h-2.584l-.646.81Zm7.623-5.119-1.766,2.453h1.658l.517-2.453Z" transform="translate(-585.748 -233.551)"/>
    <path id="Path_12" data-name="Path 12" d="M717.5,240.717l3.252-7.017h3.833l1.357,2.666h.237l1.228-2.666h3.919l-3.252,7.017h-3.855l-1.249-2.858h-.258l-1.314,2.858Z" transform="translate(-628.668 -233.551)"/>
    <path id="Path_13" data-name="Path 13" d="M784.629,240.1a28.586,28.586,0,0,1-3.79.277,8.527,8.527,0,0,1-2.735-.32,1.315,1.315,0,0,1-.948-1.109,4.46,4.46,0,0,1,.582-2.218,6,6,0,0,1,2.347-2.858,9.269,9.269,0,0,1,4.307-.768,19.731,19.731,0,0,1,2.778.213l.56.064-.969,1.877c-.883-.064-1.723-.107-2.5-.107a3.345,3.345,0,0,0-1.637.277,2.6,2.6,0,0,0-.861,1.152,3.212,3.212,0,0,0-.388,1.194.462.462,0,0,0,.3.448,3.987,3.987,0,0,0,1.1.107l2.649-.064Z" transform="translate(-675.468 -233.079)"/>
    <path id="Path_14" data-name="Path 14" d="M817,240.717l3.252-7.017h8.463l-.9,1.941h-4.544l-.28.6h3.532l-.883,1.919H822.1l-.28.618h4.544l-.9,1.941Z" transform="translate(-706.741 -233.551)"/>
  </g>
  <path id="Path_15" data-name="Path 15" d="M230.9,144.472h8.4L254.158,111.5h-8.4Z" transform="translate(-207.858 -111.5)" fill="#ee322f"/>
  <path id="Path_16" data-name="Path 16" d="M138.759,111.5,123.9,144.472h6.03L144.789,111.5Z" transform="translate(-123.9 -111.5)" fill="#ee322f"/>
  <path id="Path_17" data-name="Path 17" d="M190.259,111.5,175.4,144.472h7.107L197.366,111.5Z" transform="translate(-164.309 -111.5)" fill="#ee322f"/>
</svg>
