<svg xmlns="http://www.w3.org/2000/svg" width="15.538" height="15.612" viewBox="0 0 15.538 15.612">
  <path id="iconmonstr-whatsapp-1" d="M.057,15.612l1.1-4.009a7.736,7.736,0,1,1,3,2.933l-4.1,1.076Zm4.291-2.476A6.415,6.415,0,1,0,2.564,11.4l-.65,2.373,2.434-.638Zm7.407-3.554c-.048-.081-.177-.129-.371-.226s-1.144-.565-1.321-.629-.306-.1-.435.1-.5.629-.612.758-.226.145-.419.048A5.276,5.276,0,0,1,7.043,8.67,5.819,5.819,0,0,1,5.967,7.33c-.113-.193-.012-.3.085-.394s.193-.226.29-.339a1.268,1.268,0,0,0,.2-.322.355.355,0,0,0-.016-.339c-.049-.1-.435-1.048-.6-1.435s-.317-.326-.435-.332l-.371-.007a.708.708,0,0,0-.515.242,2.169,2.169,0,0,0-.677,1.613,3.762,3.762,0,0,0,.789,2,8.618,8.618,0,0,0,3.3,2.919,11.185,11.185,0,0,0,1.1.407,2.657,2.657,0,0,0,1.218.077,1.991,1.991,0,0,0,1.3-.919,1.61,1.61,0,0,0,.113-.92Z" transform="translate(-0.057)"/>
</svg>
