<svg xmlns="http://www.w3.org/2000/svg" width="15.216" height="15.216" viewBox="0 0 15.216 15.216">
  <path id="iconmonstr-skype-1" d="M14.573,8.854A7.1,7.1,0,0,0,6.3.626,4.148,4.148,0,0,0,.634,6.35,7.1,7.1,0,0,0,8.928,14.6,4.148,4.148,0,0,0,14.573,8.854ZM7.851,12.589c-2.017,0-4.044-.918-4.033-2.5a.886.886,0,0,1,.83-.914c1.187,0,1.176,1.772,3.067,1.772,1.327,0,1.78-.727,1.78-1.232,0-1.83-5.733-.708-5.733-4.148,0-1.863,1.523-3.146,3.917-3.006C9.962,2.7,11.3,3.705,11.429,4.647a.965.965,0,0,1-1.052,1.095c-1.032,0-1.138-1.383-2.916-1.383-.8,0-1.48.335-1.48,1.061,0,1.518,5.7.637,5.7,3.979,0,1.927-1.536,3.19-3.83,3.19Z" transform="translate(0)"/>
</svg>
