<svg id="ZDX_Logo_Black_Red" xmlns="http://www.w3.org/2000/svg" width="160.642" height="31.316" viewBox="0 0 160.642 31.316">
  <g id="Group_1" data-name="Group 1" transform="translate(40.729 0.02)">
    <path id="Path_1" data-name="Path 1" d="M333.218,117.473l2.675-5.873H369.1l-2.675,5.873L348.926,126l-.241.523h13.6l-2.655,5.873H326.4l2.554-5.591L346.9,118l.241-.523Z" transform="translate(-326.4 -111.6)" fill="#fff"/>
    <path id="Path_2" data-name="Path 2" d="M525.463,132.477H507.1l9.493-20.777h17.74c7.221,0,12.068.8,14.5,2.414s2.856,4.183,1.227,7.743a15.993,15.993,0,0,1-8.226,7.965C537.993,131.592,532.523,132.477,525.463,132.477Zm9.775-10.258c.845-1.871,1.026-3.1.543-3.721s-2.072-.925-4.747-.925H528.46l-4.143,9.051h2.574a13.628,13.628,0,0,0,5.189-.8A6.705,6.705,0,0,0,535.238,122.219Z" transform="translate(-470.756 -111.68)" fill="#fff"/>
    <path id="Path_3" data-name="Path 3" d="M711.876,111.7l1.207,5.712,7.5-5.712h14.28l-13.6,9.9,3.54,10.881H709.885l-1.167-5.531-6.336,5.531H687.6l13.516-9.956L697.093,111.7Z" transform="translate(-614.952 -111.68)" fill="#fff"/>
  </g>
  <g id="Group_2" data-name="Group 2" transform="translate(36.424 24.437)">
    <path id="Path_4" data-name="Path 4" d="M309.767,238.909h-.483l-.644,1.408H305l3.037-6.617h4.143a7.268,7.268,0,0,1,3.4.543c.6.362.664,1.046.2,2.031a3.836,3.836,0,0,1-2.092,2.072A11.334,11.334,0,0,1,309.767,238.909Zm.342-1.81h.322a2.442,2.442,0,0,0,1.046-.181,1.315,1.315,0,0,0,.583-.644q.211-.453,0-.6a1.738,1.738,0,0,0-.905-.161h-.322Z" transform="translate(-305 -233.559)" fill="#fff"/>
    <path id="Path_5" data-name="Path 5" d="M354.8,240.317l3.037-6.617h7.9l-.845,1.83h-4.244l-.261.563h3.3l-.825,1.81h-3.3l-.261.583h4.244l-.845,1.83h-7.9Z" transform="translate(-344.784 -233.559)" fill="#fff"/>
    <path id="Path_6" data-name="Path 6" d="M405.05,238.608h-.905l-.784,1.71H399.7l3.037-6.617h4.445a6.912,6.912,0,0,1,3.258.5c.543.342.6.965.181,1.891a3.76,3.76,0,0,1-2.072,1.971v2.253h-3.721Zm.8-1.81a1.077,1.077,0,0,0,1.066-.644c.2-.422,0-.644-.563-.644h-.8l-.583,1.287Z" transform="translate(-380.653 -233.559)" fill="#fff"/>
    <path id="Path_7" data-name="Path 7" d="M450,240.317l3.037-6.617h7.6l-.865,1.87h-3.942l-.483,1.066h3l-.865,1.87h-3l-.825,1.81Z" transform="translate(-420.836 -233.559)" fill="#fff"/>
    <path id="Path_8" data-name="Path 8" d="M506.889,236.439a5.262,5.262,0,0,1-2.393,2.615,9.111,9.111,0,0,1-4.184.8c-1.75,0-2.9-.282-3.459-.825-.543-.543-.563-1.428,0-2.615a5.263,5.263,0,0,1,2.393-2.615,9.2,9.2,0,0,1,4.2-.8c1.75,0,2.9.261,3.459.8C507.432,234.368,507.432,235.233,506.889,236.439Zm-6.356,0a2.13,2.13,0,0,0-.3,1.207c.06.241.362.362.925.362a1.846,1.846,0,0,0,1.247-.362,3.482,3.482,0,0,0,.8-1.227,2.446,2.446,0,0,0,.322-1.207q-.091-.362-.905-.362a1.942,1.942,0,0,0-1.267.362A3.338,3.338,0,0,0,500.533,236.439Z" transform="translate(-457.934 -233)" fill="#fff"/>
    <path id="Path_9" data-name="Path 9" d="M551.65,238.608h-.905l-.784,1.71H546.3l3.037-6.617h4.445a6.912,6.912,0,0,1,3.258.5c.543.342.6.965.181,1.891a3.76,3.76,0,0,1-2.072,1.971v2.253h-3.681Zm.825-1.81a1.077,1.077,0,0,0,1.066-.644c.2-.422,0-.644-.563-.644h-.8l-.583,1.287Z" transform="translate(-497.768 -233.559)" fill="#fff"/>
    <path id="Path_10" data-name="Path 10" d="M596.7,240.317l3.037-6.617h5.43l-.342,2.534,1.83-2.534h5.591l-3.037,6.617H605.55l1.569-3.4h-.181l-2.434,3.339h-3.057l.623-3.339h-.181l-1.569,3.4Z" transform="translate(-538.031 -233.559)" fill="#fff"/>
    <path id="Path_11" data-name="Path 11" d="M662.8,240.317l5.37-6.617H673.7l-.664,6.617h-3.681l.04-.764h-2.414l-.6.764Zm7.12-4.827-1.649,2.313h1.549l.483-2.313Z" transform="translate(-590.836 -233.559)" fill="#fff"/>
    <path id="Path_12" data-name="Path 12" d="M717.5,240.317l3.037-6.617h3.58l1.267,2.514h.221l1.146-2.514h3.661l-3.037,6.617h-3.6l-1.167-2.7h-.241l-1.227,2.7Z" transform="translate(-634.534 -233.559)" fill="#fff"/>
    <path id="Path_13" data-name="Path 13" d="M784.134,239.7a26.445,26.445,0,0,1-3.54.261,7.892,7.892,0,0,1-2.554-.3,1.237,1.237,0,0,1-.885-1.046,4.238,4.238,0,0,1,.543-2.092,5.643,5.643,0,0,1,2.192-2.7,8.584,8.584,0,0,1,4.023-.724,18.254,18.254,0,0,1,2.595.2l.523.06-.905,1.77c-.825-.06-1.609-.1-2.333-.1a3.1,3.1,0,0,0-1.529.261,2.452,2.452,0,0,0-.8,1.086,3.05,3.05,0,0,0-.362,1.126.436.436,0,0,0,.282.422,3.689,3.689,0,0,0,1.026.1l2.474-.06Z" transform="translate(-682.182 -233.08)" fill="#fff"/>
    <path id="Path_14" data-name="Path 14" d="M817,240.317l3.037-6.617h7.9l-.845,1.83h-4.244l-.261.563h3.3l-.825,1.81h-3.3l-.261.583h4.244l-.845,1.83H817Z" transform="translate(-714.022 -233.559)" fill="#fff"/>
  </g>
  <path id="Path_15" data-name="Path 15" d="M230.9,142.595h7.844L252.622,111.5h-7.844Z" transform="translate(-209.379 -111.5)" fill="#fff"/>
  <path id="Path_16" data-name="Path 16" d="M137.778,111.5,123.9,142.595h5.632L143.41,111.5Z" transform="translate(-123.9 -111.5)" fill="#fff"/>
  <path id="Path_17" data-name="Path 17" d="M189.278,111.5,175.4,142.595h6.637L195.915,111.5Z" transform="translate(-165.042 -111.5)" fill="#fff"/>
</svg>
