<svg xmlns="http://www.w3.org/2000/svg" width="16" height="20.722" viewBox="0 0 16 20.722">
  <g id="Group_73" data-name="Group 73" transform="translate(-1541.795 -8.5)">
    <path id="Path_22" data-name="Path 22" d="M185.555,82.361a4.722,4.722,0,1,1,4.722-4.722A4.718,4.718,0,0,1,185.555,82.361Zm0-8.333a3.611,3.611,0,1,0,3.611,3.611A3.6,3.6,0,0,0,185.555,74.027Z" transform="translate(1364.24 -63.916)" fill="#fff" stroke="#fff" stroke-miterlimit="10" stroke-width="1"/>
    <path id="Path_23" data-name="Path 23" d="M136.943,292.636H123.054a.557.557,0,0,1-.556-.556v-1.667a7.5,7.5,0,1,1,15,0v1.667a.557.557,0,0,1-.556.556Zm-13.333-1.111h12.778v-1.111a6.389,6.389,0,0,0-12.778,0Z" transform="translate(1419.797 -263.914)" fill="#fff" stroke="#fff" stroke-miterlimit="10" stroke-width="1"/>
  </g>
</svg>
